<svg width="49" height="49" viewBox="0 0 49 49" fill="none" xmlns="http://www.w3.org/2000/svg">
<circle cx="24.5" cy="24.3618" r="23.5" stroke="#FEF4F4" stroke-opacity="0.5"/>
<path d="M24.4999 16.0283C26.7641 16.0283 27.0466 16.0367 27.9349 16.0783C28.8224 16.12 29.4266 16.2592 29.9582 16.4658C30.5082 16.6775 30.9716 16.9642 31.4349 17.4267C31.8586 17.8432 32.1865 18.3471 32.3957 18.9033C32.6016 19.4342 32.7416 20.0392 32.7832 20.9267C32.8224 21.815 32.8332 22.0975 32.8332 24.3617C32.8332 26.6258 32.8249 26.9083 32.7832 27.7967C32.7416 28.6842 32.6016 29.2883 32.3957 29.82C32.1871 30.3765 31.8592 30.8805 31.4349 31.2967C31.0182 31.7203 30.5143 32.0481 29.9582 32.2575C29.4274 32.4633 28.8224 32.6033 27.9349 32.645C27.0466 32.6842 26.7641 32.695 24.4999 32.695C22.2357 32.695 21.9532 32.6867 21.0649 32.645C20.1774 32.6033 19.5732 32.4633 19.0416 32.2575C18.4852 32.0487 17.9812 31.7208 17.5649 31.2967C17.1411 30.8801 16.8132 30.3762 16.6041 29.82C16.3974 29.2892 16.2582 28.6842 16.2166 27.7967C16.1774 26.9083 16.1666 26.6258 16.1666 24.3617C16.1666 22.0975 16.1749 21.815 16.2166 20.9267C16.2582 20.0383 16.3974 19.435 16.6041 18.9033C16.8126 18.3468 17.1406 17.8428 17.5649 17.4267C17.9813 17.0027 18.4853 16.6748 19.0416 16.4658C19.5732 16.2592 20.1766 16.12 21.0649 16.0783C21.9532 16.0392 22.2357 16.0283 24.4999 16.0283ZM24.4999 20.195C23.3948 20.195 22.335 20.634 21.5536 21.4154C20.7722 22.1968 20.3332 23.2566 20.3332 24.3617C20.3332 25.4667 20.7722 26.5265 21.5536 27.3079C22.335 28.0893 23.3948 28.5283 24.4999 28.5283C25.605 28.5283 26.6648 28.0893 27.4462 27.3079C28.2276 26.5265 28.6666 25.4667 28.6666 24.3617C28.6666 23.2566 28.2276 22.1968 27.4462 21.4154C26.6648 20.634 25.605 20.195 24.4999 20.195V20.195ZM29.9166 19.9867C29.9166 19.7104 29.8068 19.4454 29.6115 19.2501C29.4161 19.0547 29.1512 18.945 28.8749 18.945C28.5986 18.945 28.3337 19.0547 28.1383 19.2501C27.943 19.4454 27.8332 19.7104 27.8332 19.9867C27.8332 20.2629 27.943 20.5279 28.1383 20.7232C28.3337 20.9186 28.5986 21.0283 28.8749 21.0283C29.1512 21.0283 29.4161 20.9186 29.6115 20.7232C29.8068 20.5279 29.9166 20.2629 29.9166 19.9867ZM24.4999 21.8617C25.1629 21.8617 25.7988 22.125 26.2677 22.5939C26.7365 23.0627 26.9999 23.6986 26.9999 24.3617C26.9999 25.0247 26.7365 25.6606 26.2677 26.1294C25.7988 26.5983 25.1629 26.8617 24.4999 26.8617C23.8369 26.8617 23.201 26.5983 22.7321 26.1294C22.2633 25.6606 21.9999 25.0247 21.9999 24.3617C21.9999 23.6986 22.2633 23.0627 22.7321 22.5939C23.201 22.125 23.8369 21.8617 24.4999 21.8617V21.8617Z" fill="#FEF4F4" fill-opacity="1"/>
</svg>
