<svg width="49" height="49" viewBox="0 0 49 49" fill="none" xmlns="http://www.w3.org/2000/svg">
<path d="M24.5377 16C19.5976 16 15.5772 19.8723 15.5755 24.6313C15.5743 26.1532 15.9877 27.6385 16.7716 28.9466L15.5 33.4194L20.2514 32.2192C21.5731 32.9105 23.0427 33.2711 24.5343 33.2701H24.5377C29.4779 33.2701 33.4983 29.3972 33.5 24.6383C33.5012 22.3331 32.5698 20.1632 30.8772 18.5322C29.1852 16.9006 26.9352 16.0006 24.5377 16ZM24.5377 31.8121H24.5348C23.1982 31.8121 21.8871 31.4661 20.7432 30.8123L20.4703 30.6566L17.6519 31.3685L18.4044 28.7208L18.2273 28.4496C17.4834 27.3151 17.0874 25.9879 17.0881 24.6313C17.0898 20.6754 20.432 17.458 24.5406 17.458C26.5299 17.4586 28.4002 18.2059 29.8071 19.5617C31.214 20.9175 31.988 22.7204 31.9868 24.6377C31.9851 28.5936 28.6435 31.8121 24.5372 31.8121H24.5377ZM28.6237 26.4383C28.3996 26.3308 27.2987 25.8088 27.0932 25.7363C26.8882 25.6648 26.739 25.6277 26.5897 25.8437C26.4411 26.0597 26.0114 26.5457 25.8814 26.6891C25.7501 26.8331 25.6195 26.8505 25.3954 26.7431C25.1712 26.6351 24.4495 26.4075 23.5948 25.6724C22.9288 25.101 22.4794 24.395 22.3487 24.1784C22.2181 23.963 22.3348 23.8463 22.4468 23.7388C22.5473 23.643 22.671 23.4874 22.7825 23.3614C22.8939 23.2354 22.9311 23.1454 23.0066 23.0014C23.0809 22.858 23.0437 22.7314 22.9874 22.624C22.9311 22.5154 22.484 21.454 22.2965 21.0226C22.1153 20.6022 21.9306 20.6585 21.793 20.6515C21.6624 20.6457 21.5137 20.644 21.3634 20.644C21.2153 20.644 20.972 20.698 20.7665 20.914C20.5615 21.13 19.9826 21.6514 19.9826 22.7128C19.9826 23.7748 20.785 24.8003 20.8971 24.9443C21.0092 25.0877 22.4765 27.2668 24.723 28.2017C25.2572 28.4229 25.6741 28.5559 25.9998 28.6557C26.5363 28.8201 27.0246 28.7963 27.4102 28.7411C27.8399 28.679 28.7352 28.2197 28.921 27.7163C29.108 27.2128 29.108 26.7808 29.0523 26.6908C28.9977 26.6008 28.8479 26.5468 28.6237 26.4383V26.4383Z" fill="white"/>
<circle cx="24.5" cy="24.3618" r="23.5" stroke="#FEF4F4" stroke-opacity="0.5"/>
</svg>
