<svg width="29" height="25" viewBox="0 0 29 25" fill="none" xmlns="http://www.w3.org/2000/svg">
<g id="search (6) 1">
<g id="layer1">
<path id="circle2017" d="M13.4437 2.61221C7.79455 2.61221 3.19278 6.65154 3.19278 11.6103C3.19278 16.569 7.79455 20.6162 13.4437 20.6162C15.8567 20.6162 18.0758 19.8739 19.8297 18.6415L24.0996 22.3876C24.3151 22.5689 24.6029 22.6689 24.9014 22.6663C25.1999 22.6636 25.4853 22.5584 25.6965 22.3733C25.9077 22.1882 26.0279 21.9378 26.0314 21.6758C26.0348 21.4138 25.9213 21.1611 25.715 20.9717L21.4451 17.2236C22.8503 15.6817 23.6969 13.7307 23.6969 11.6103C23.6969 6.65154 19.0929 2.61221 13.4437 2.61221V2.61221ZM13.4437 4.61224C17.8615 4.61224 21.4162 7.73244 21.4162 11.6103C21.4162 15.4881 17.8615 18.6162 13.4437 18.6162C9.02593 18.6162 5.47126 15.4881 5.47126 11.6103C5.47126 7.73244 9.02593 4.61224 13.4437 4.61224Z" fill="#FEF4F4"/>
</g>
</g>
</svg>
