<svg width="24" height="104" viewBox="0 0 24 104" fill="none" xmlns="http://www.w3.org/2000/svg">
<g id="Group 24">
<path id="Vector" d="M24 2.30755C23.1172 2.69927 22.1691 2.96408 21.1722 3.08311C22.1896 2.47386 22.969 1.50841 23.3371 0.359373C22.3706 0.933403 21.3129 1.33752 20.2098 1.55417C19.3122 0.597366 18.0322 0 16.6161 0C13.8978 0 11.6934 2.20358 11.6934 4.92338C11.6934 5.30874 11.7368 5.6847 11.8202 6.04566C7.72833 5.84001 4.1006 3.87996 1.67237 0.901641C1.24837 1.62903 1.00567 2.47475 1.00567 3.37709C1.00567 5.08498 1.87497 6.59187 3.19584 7.47457C2.41391 7.45034 1.64913 7.23928 0.965445 6.85903V6.92125C0.965445 9.3069 2.66228 11.2961 4.91473 11.7485C4.50096 11.8619 4.06673 11.9211 3.6175 11.9211C3.29987 11.9211 2.99172 11.8911 2.69069 11.8345C3.31722 13.7898 5.1355 15.2131 7.28933 15.2534C5.60431 16.5742 3.48112 17.3616 1.17509 17.3616C0.77791 17.3616 0.385365 17.3379 0 17.2915C2.17918 18.6888 4.7666 19.5045 7.54708 19.5045C16.6026 19.5045 21.5552 12.0024 21.5552 5.4964C21.5552 5.28281 21.5505 5.07081 21.5402 4.85957C22.5051 4.16164 23.338 3.29748 24 2.30755Z" fill="white"/>
<g id="Group">
<g id="Group_2">
<path id="Vector_2" d="M8.00096 49.5045C8.00096 47.2955 9.79134 45.5042 12.0005 45.5042C14.2096 45.5042 16.001 47.2955 16.001 49.5045C16.001 51.7136 14.2096 53.5048 12.0005 53.5048C9.79134 53.5048 8.00096 51.7136 8.00096 49.5045ZM5.83838 49.5045C5.83838 52.9077 8.59714 55.6664 12.0005 55.6664C15.4038 55.6664 18.1626 52.9077 18.1626 49.5045C18.1626 46.1013 15.4038 43.3427 12.0005 43.3427C8.59714 43.3427 5.83838 46.1013 5.83838 49.5045ZM16.9665 43.0983C16.9662 43.8936 17.6106 44.5386 18.406 44.5389C19.2013 44.5392 19.8463 43.8948 19.8466 43.0995C19.8469 42.3042 19.2024 41.6592 18.4071 41.6589H18.4065C17.6116 41.6593 16.9672 42.3034 16.9665 43.0983ZM7.15229 59.2722C5.98229 59.2189 5.34636 59.0241 4.92375 58.8594C4.36347 58.6413 3.96371 58.3815 3.54341 57.9618C3.1231 57.5421 2.86293 57.1428 2.64577 56.5825C2.48103 56.1601 2.28614 55.524 2.23295 54.3541C2.17477 53.0892 2.16316 52.7092 2.16316 49.5046C2.16316 46.3 2.17574 45.9211 2.23295 44.6552C2.28624 43.4852 2.48256 42.8504 2.64577 42.4267C2.86389 41.8665 3.12368 41.4667 3.54341 41.0464C3.96313 40.6261 4.36251 40.366 4.92375 40.1488C5.34617 39.9841 5.98229 39.7892 7.15229 39.736C8.41723 39.6779 8.79722 39.6662 12.0005 39.6662C15.2037 39.6662 15.5841 39.6788 16.8501 39.736C18.0201 39.7893 18.655 39.9856 19.0787 40.1488C19.6389 40.366 20.0387 40.6267 20.459 41.0464C20.8793 41.4661 21.1385 41.8665 21.3566 42.4267C21.5214 42.8491 21.7163 43.4852 21.7694 44.6552C21.8276 45.9211 21.8392 46.3 21.8392 49.5046C21.8392 52.7092 21.8276 53.0881 21.7694 54.3541C21.7162 55.524 21.5203 56.1599 21.3566 56.5825C21.1385 57.1428 20.8787 57.5425 20.459 57.9618C20.0393 58.3812 19.6389 58.6413 19.0787 58.8594C18.6562 59.0242 18.0201 59.219 16.8501 59.2722C15.5852 59.3304 15.2052 59.342 12.0005 59.342C8.79578 59.342 8.41685 59.3304 7.15229 59.2722ZM7.05292 37.5772C5.7754 37.6354 4.90244 37.8379 4.14007 38.1346C3.35053 38.4409 2.68216 38.8519 2.01426 39.5187C1.34636 40.1855 0.936421 40.8549 0.630073 41.6444C0.333421 42.4072 0.130853 43.2797 0.0726749 44.5572C0.0135365 45.8366 0 46.2457 0 49.5045C0 52.7633 0.0135365 53.1724 0.0726749 54.4519C0.130853 55.7294 0.333421 56.6018 0.630073 57.3646C0.936421 58.1536 1.34645 58.8238 2.01426 59.4903C2.68206 60.1569 3.35053 60.5673 4.14007 60.8745C4.90388 61.1711 5.7754 61.3737 7.05292 61.4318C8.33313 61.49 8.74153 61.5045 12.0005 61.5045C15.2594 61.5045 15.6685 61.491 16.948 61.4318C18.2257 61.3737 19.098 61.1711 19.8609 60.8745C20.6499 60.5673 21.3188 60.1572 21.9867 59.4903C22.6546 58.8235 23.0637 58.1536 23.3709 57.3646C23.6675 56.6018 23.8711 55.7293 23.9283 54.4519C23.9865 53.1714 24 52.7633 24 49.5045C24 46.2457 23.9865 45.8366 23.9283 44.5572C23.8701 43.2796 23.6675 42.4068 23.3709 41.6444C23.0637 40.8554 22.6535 40.1866 21.9867 39.5187C21.3199 38.8508 20.6499 38.4409 19.8619 38.1346C19.098 37.8379 18.2256 37.6344 16.949 37.5772C15.6695 37.519 15.2604 37.5045 12.0014 37.5045C8.74249 37.5045 8.33313 37.5181 7.05292 37.5772Z" fill="white"/>
</g>
</g>
<g id="Group_3">
<g id="Group_4">
<path id="Vector_3" fill-rule="evenodd" clip-rule="evenodd" d="M22.6755 103.505C23.407 103.505 24 102.912 24 102.18V80.8291C24 80.0974 23.4069 79.5045 22.6755 79.5045H1.32458C0.592867 79.5045 0 80.0975 0 80.8291V102.18C0 102.912 0.592867 103.505 1.32458 103.505H22.6755V103.505ZM16.5596 103.505V94.2105H19.6793L20.1463 90.5884H16.5595V88.2759C16.5595 87.2272 16.8507 86.5125 18.3546 86.5125L20.2726 86.5116V83.272C19.9408 83.228 18.8022 83.1293 17.4777 83.1293C14.7123 83.1293 12.8191 84.8173 12.8191 87.9172V90.5884H9.69143V94.2105H12.8191V103.505H16.5596V103.505Z" fill="white"/>
</g>
</g>
</g>
</svg>
