<svg width="48" height="38" viewBox="0 0 48 38" fill="none" xmlns="http://www.w3.org/2000/svg">
<path d="M43.2 38C44.52 38 45.6504 37.5345 46.5912 36.6035C47.532 35.6725 48.0016 34.5547 48 33.25V4.75C48 3.44375 47.5296 2.32513 46.5888 1.39413C45.648 0.463129 44.5184 -0.0015793 43.2 4.03226e-06H4.8C3.48 4.03226e-06 2.3496 0.465503 1.4088 1.3965C0.468002 2.3275 -0.00159836 3.44534 3.8147e-06 4.75V33.25C3.8147e-06 34.5562 0.470402 35.6749 1.4112 36.6059C2.352 37.5369 3.4816 38.0016 4.8 38H43.2ZM24 21.375L43.2 9.5V33.25H4.8V9.5L24 21.375ZM24 16.625L4.8 4.75H43.2L24 16.625ZM43.2 9.5V4.75V33.25V9.5Z" fill="#FFFBF5"/>
</svg>
