<svg width="39" height="61" viewBox="0 0 39 61" fill="none" xmlns="http://www.w3.org/2000/svg">
<path d="M13.9286 52.6818H25.0714V49.9091H13.9286V52.6818ZM5.57143 61C4.03929 61 2.72722 60.4565 1.63522 59.3696C0.543218 58.2827 -0.00185241 56.9777 4.72957e-06 55.4545V5.54546C4.72957e-06 4.02046 0.546004 2.7145 1.638 1.6276C2.73 0.540686 4.04115 -0.00184378 5.57143 4.70752e-06H33.4286C34.9607 4.70752e-06 36.2728 0.543459 37.3648 1.63037C38.4568 2.71728 39.0019 4.02231 39 5.54546V55.4545C39 56.9795 38.454 58.2855 37.362 59.3724C36.27 60.4593 34.9589 61.0018 33.4286 61H5.57143ZM5.57143 47.1364V55.4545H33.4286V47.1364H5.57143ZM5.57143 41.5909H33.4286V13.8636H5.57143V41.5909ZM5.57143 8.31818H33.4286V5.54546H5.57143V8.31818Z" fill="#FFFBF5"/>
</svg>
