<svg width="39" height="61" fill="none" xmlns="http://www.w3.org/2000/svg"><path d="M13.929 52.682H25.07v-2.773H13.93v2.773zM5.57 61c-1.532 0-2.844-.544-3.936-1.63C.543 58.283-.002 56.978 0 55.455V5.545c0-1.525.546-2.83 1.638-3.917C2.73.54 4.041-.002 5.571 0H33.43c1.532 0 2.844.543 3.936 1.63C38.457 2.717 39.002 4.022 39 5.545v49.91c0 1.525-.546 2.83-1.638 3.917-1.092 1.087-2.403 1.63-3.933 1.628H5.57zm0-13.864v8.319h27.86v-8.319H5.57zm0-5.545h27.86V13.864H5.57V41.59zm0-33.273h27.86V5.545H5.57v2.773z" fill="#FFFBF5"/></svg>