<svg width="56" height="51" fill="none" xmlns="http://www.w3.org/2000/svg"><path d="M54.574.993A4.152 4.152 0 0050.36.29L2.63 19.144a4.09 4.09 0 00-2.017 1.675 4.128 4.128 0 00-.594 2.563 4.172 4.172 0 001.04 2.414 4.131 4.131 0 002.27 1.305l12.126 2.419v15.238c0 .825.243 1.63.698 2.316a4.142 4.142 0 001.862 1.533 4.27 4.27 0 001.577.312 4.065 4.065 0 002.922-1.222l6.722-6.736 10.161 8.998a4.123 4.123 0 002.715 1.04c.44.01.878-.061 1.293-.208a4.108 4.108 0 001.782-1.138c.485-.53.824-1.177.984-1.878l9.722-42.7A4.183 4.183 0 0054.574.993zm-37.542 24.6L4.156 23.018 40.25 8.742l-23.218 16.85zm2.56 19.165V32.432l6.516 5.773-6.516 6.553zm22.546 2.08L20.833 27.986 51.523 5.7l-9.385 41.14z" fill="#FFFBF5"/></svg>