<svg width="49" height="49" fill="none" xmlns="http://www.w3.org/2000/svg"><path d="M41.86 7.13a24.178 24.178 0 00-7.91-5.292A24.276 24.276 0 0024.598 0C11.155 0 .198 10.903.198 24.28a24.26 24.26 0 003.25 12.127L.457 47.331a1 1 0 001.218 1.231l11.252-2.943A24.505 24.505 0 0024.6 48.584c13.443 0 24.4-10.904 24.4-24.281 0-6.492-2.536-12.593-7.14-17.174zM24.598 44.467a20.42 20.42 0 01-10.342-2.817l-.739-.441-6.007 1.57a1 1 0 01-1.217-1.231l1.585-5.778-.492-.76a20.172 20.172 0 01-3.103-10.73c0-11.123 9.111-20.188 20.29-20.188 5.417 0 10.514 2.107 14.33 5.929a20.043 20.043 0 014.407 6.55 19.962 19.962 0 011.528 7.733c.049 11.123-9.062 20.164-20.24 20.164zm11.13-15.091c-.616-.294-3.62-1.764-4.162-1.985-.567-.196-.96-.294-1.38.294-.418.613-1.575 1.985-1.92 2.377-.344.416-.714.465-1.33.147-.615-.294-2.585-.956-4.9-3.014-1.821-1.617-3.028-3.601-3.397-4.214-.345-.612-.05-.93.27-1.25.271-.269.616-.71.912-1.053.295-.343.418-.612.615-1.004.197-.417.099-.76-.05-1.054-.147-.294-1.378-3.283-1.87-4.508-.493-1.176-1.01-1.029-1.38-1.053h-1.181c-.419 0-1.059.147-1.625.76-.542.612-2.118 2.082-2.118 5.07 0 2.99 2.192 5.88 2.487 6.273.296.416 4.309 6.541 10.416 9.163a29.896 29.896 0 003.471 1.273c1.453.466 2.783.392 3.842.245 1.182-.171 3.62-1.47 4.112-2.89.517-1.421.517-2.622.344-2.891-.172-.27-.541-.392-1.157-.686z" fill="#FFFBF5"/></svg>