<svg xmlns="http://www.w3.org/2000/svg" width="256" height="256"><path d="M127.857 1.407c-69.837 0-126.45 57.512-126.45 128.456 0 59.91 40.37 110.236 94.983 124.444-.036-14.846-.084-33.054-.112-38.728-36.49 8.062-44.19-15.722-44.19-15.722-5.966-15.401-14.564-19.498-14.564-19.498-11.904-8.27.896-8.102.896-8.102 13.17.939 20.108 13.733 20.108 13.733 11.698 20.37 30.685 14.48 38.171 11.077 1.178-8.61 4.575-14.491 8.33-17.818-29.135-3.37-59.764-14.795-59.764-65.853 0-14.547 5.126-26.433 13.516-35.765-1.363-3.358-5.853-16.91 1.27-35.266 0 0 11.015-3.58 36.08 13.66 10.465-2.954 21.685-4.435 32.833-4.485 11.147.05 22.376 1.531 32.86 4.485 25.037-17.24 36.035-13.66 36.035-13.66 7.14 18.355 2.65 31.908 1.287 35.266 8.41 9.332 13.5 21.218 13.5 35.765 0 51.182-30.686 62.447-59.896 65.749 4.704 4.136 8.897 12.243 8.897 24.674 0 9.872-.045 32.6-.087 49.85 53.466-14.989 92.747-64.723 92.747-123.806 0-70.944-56.613-128.456-126.45-128.456z"/></svg>