<svg xmlns="http://www.w3.org/2000/svg" width="256" height="256"><g stroke-width="0" stroke-miterlimit="10"><path d="M241.884 220.721H13.83c-6.851 0-12.423-5.575-12.423-12.423V47.415c0-6.851 5.572-12.423 12.423-12.423h228.054c6.85 0 12.423 5.572 12.423 12.423v160.883c0 6.848-5.573 12.423-12.423 12.423zM13.83 40.611a6.81 6.81 0 00-6.803 6.804v160.883a6.81 6.81 0 006.803 6.803h228.054a6.81 6.81 0 006.803-6.803V47.415a6.81 6.81 0 00-6.803-6.803H13.83z"/><path d="M254.307 75.11H1.407V47.415c0-6.851 5.572-12.423 12.423-12.423h228.054c6.85 0 12.423 5.572 12.423 12.423V75.11zM7.027 69.49h241.66V47.415a6.81 6.81 0 00-6.803-6.803H13.83a6.81 6.81 0 00-6.803 6.803V69.49z"/><path d="M123.096 57.862h-91.64a2.811 2.811 0 010-5.62h91.64a2.811 2.811 0 010 5.62zm101.164 0h-12.963a2.81 2.81 0 110-5.62h12.962a2.81 2.81 0 110 5.62zm-99.326 110.312c-12.664 0-22.969-10.304-22.969-22.968s10.305-22.97 22.97-22.97 22.968 10.305 22.968 22.97-10.304 22.968-22.969 22.968zm0-40.317c-9.565 0-17.349 7.783-17.349 17.349s7.784 17.348 17.35 17.348 17.348-7.783 17.348-17.348-7.784-17.35-17.349-17.35zm-49.54 40.317c-12.665 0-22.969-10.304-22.969-22.968s10.304-22.97 22.969-22.97a22.96 22.96 0 0114.876 5.486 2.812 2.812 0 01.318 3.962 2.815 2.815 0 01-3.963.315 17.352 17.352 0 00-11.231-4.142c-9.565 0-17.349 7.783-17.349 17.349s7.784 17.348 17.349 17.348c3.715 0 7.27-1.177 10.282-3.402a2.81 2.81 0 013.338 4.521c-3.987 2.945-8.697 4.501-13.62 4.501zm86.969 0a2.807 2.807 0 01-2.81-2.81v-28.296c0-8.18 6.654-14.831 14.832-14.831s14.83 6.654 14.83 14.83c0 1.555-1.255 2.81-2.81 2.81s-2.81-1.255-2.81-2.81c0-5.08-4.133-9.21-9.21-9.21s-9.212 4.133-9.212 9.21v28.295a2.81 2.81 0 01-2.81 2.812z"/><path d="M210.45 168.174a2.807 2.807 0 01-2.81-2.81v-28.296c0-5.08-4.13-9.211-9.207-9.211s-9.212 4.133-9.212 9.21v28.295c0 1.554-1.256 2.81-2.81 2.81s-2.81-1.256-2.81-2.81v-28.294c0-8.18 6.654-14.831 14.832-14.831s14.828 6.654 14.828 14.83v28.295a2.812 2.812 0 01-2.81 2.812zm-163.934 0h-1.254a2.81 2.81 0 110-5.62h1.254a2.81 2.81 0 110 5.62z"/></g></svg>