<svg xmlns="http://www.w3.org/2000/svg" xmlns:xlink="http://www.w3.org/1999/xlink" version="1.1" width="256" height="256" viewBox="0 0 256 256" xml:space="preserve">

<defs>
</defs>
<g style="stroke: none; stroke-width: 0; stroke-dasharray: none; stroke-linecap: butt; stroke-linejoin: miter; stroke-miterlimit: 10; fill: none; fill-rule: nonzero; opacity: 1;" transform="translate(1.4065934065934016 1.4065934065934016) scale(2.81 2.81)" >
	<path d="M 85.579 78.048 H 4.421 C 1.983 78.048 0 76.064 0 73.627 V 16.373 c 0 -2.438 1.983 -4.421 4.421 -4.421 h 81.158 c 2.438 0 4.421 1.983 4.421 4.421 v 57.254 C 90 76.064 88.017 78.048 85.579 78.048 z M 4.421 13.952 C 3.086 13.952 2 15.038 2 16.373 v 57.254 c 0 1.335 1.086 2.421 2.421 2.421 h 81.158 c 1.335 0 2.421 -1.086 2.421 -2.421 V 16.373 c 0 -1.335 -1.086 -2.421 -2.421 -2.421 H 4.421 z" style="stroke: none; stroke-width: 1; stroke-dasharray: none; stroke-linecap: butt; stroke-linejoin: miter; stroke-miterlimit: 10; fill: rgb(0,0,0); fill-rule: nonzero; opacity: 1;" transform=" matrix(1 0 0 1 0 0) " stroke-linecap="round" />
	<path d="M 90 26.229 H 0 v -9.856 c 0 -2.438 1.983 -4.421 4.421 -4.421 h 81.158 c 2.438 0 4.421 1.983 4.421 4.421 V 26.229 z M 2 24.229 h 86 v -7.856 c 0 -1.335 -1.086 -2.421 -2.421 -2.421 H 4.421 C 3.086 13.952 2 15.038 2 16.373 V 24.229 z" style="stroke: none; stroke-width: 1; stroke-dasharray: none; stroke-linecap: butt; stroke-linejoin: miter; stroke-miterlimit: 10; fill: rgb(0,0,0); fill-rule: nonzero; opacity: 1;" transform=" matrix(1 0 0 1 0 0) " stroke-linecap="round" />
	<path d="M 43.306 20.091 H 10.694 c -0.552 0 -1 -0.448 -1 -1 s 0.448 -1 1 -1 h 32.612 c 0.552 0 1 0.448 1 1 S 43.858 20.091 43.306 20.091 z" style="stroke: none; stroke-width: 1; stroke-dasharray: none; stroke-linecap: butt; stroke-linejoin: miter; stroke-miterlimit: 10; fill: rgb(0,0,0); fill-rule: nonzero; opacity: 1;" transform=" matrix(1 0 0 1 0 0) " stroke-linecap="round" />
	<path d="M 79.307 20.091 h -4.613 c -0.553 0 -1 -0.448 -1 -1 s 0.447 -1 1 -1 h 4.613 c 0.553 0 1 0.448 1 1 S 79.859 20.091 79.307 20.091 z" style="stroke: none; stroke-width: 1; stroke-dasharray: none; stroke-linecap: butt; stroke-linejoin: miter; stroke-miterlimit: 10; fill: rgb(0,0,0); fill-rule: nonzero; opacity: 1;" transform=" matrix(1 0 0 1 0 0) " stroke-linecap="round" />
	<path d="M 43.96 59.348 c -4.507 0 -8.174 -3.667 -8.174 -8.174 S 39.453 43 43.96 43 s 8.174 3.667 8.174 8.174 S 48.467 59.348 43.96 59.348 z M 43.96 45 c -3.404 0 -6.174 2.77 -6.174 6.174 s 2.77 6.174 6.174 6.174 s 6.174 -2.77 6.174 -6.174 S 47.364 45 43.96 45 z" style="stroke: none; stroke-width: 1; stroke-dasharray: none; stroke-linecap: butt; stroke-linejoin: miter; stroke-miterlimit: 10; fill: rgb(0,0,0); fill-rule: nonzero; opacity: 1;" transform=" matrix(1 0 0 1 0 0) " stroke-linecap="round" />
	<path d="M 26.33 59.348 c -4.507 0 -8.174 -3.667 -8.174 -8.174 S 21.823 43 26.33 43 c 1.937 0 3.816 0.693 5.294 1.952 c 0.42 0.358 0.471 0.989 0.113 1.41 c -0.358 0.419 -0.99 0.47 -1.41 0.112 C 29.211 45.524 27.791 45 26.33 45 c -3.404 0 -6.174 2.77 -6.174 6.174 s 2.77 6.174 6.174 6.174 c 1.322 0 2.587 -0.419 3.659 -1.211 c 0.445 -0.327 1.071 -0.233 1.398 0.211 c 0.328 0.443 0.234 1.07 -0.21 1.398 C 29.758 58.794 28.082 59.348 26.33 59.348 z" style="stroke: none; stroke-width: 1; stroke-dasharray: none; stroke-linecap: butt; stroke-linejoin: miter; stroke-miterlimit: 10; fill: rgb(0,0,0); fill-rule: nonzero; opacity: 1;" transform=" matrix(1 0 0 1 0 0) " stroke-linecap="round" />
	<path d="M 57.28 59.348 c -0.553 0 -1 -0.447 -1 -1 V 48.278 c 0 -2.911 2.368 -5.278 5.278 -5.278 s 5.278 2.368 5.278 5.278 c 0 0.553 -0.447 1 -1 1 s -1 -0.447 -1 -1 c 0 -1.808 -1.471 -3.278 -3.278 -3.278 s -3.278 1.471 -3.278 3.278 v 10.069 C 58.28 58.9 57.833 59.348 57.28 59.348 z" style="stroke: none; stroke-width: 1; stroke-dasharray: none; stroke-linecap: butt; stroke-linejoin: miter; stroke-miterlimit: 10; fill: rgb(0,0,0); fill-rule: nonzero; opacity: 1;" transform=" matrix(1 0 0 1 0 0) " stroke-linecap="round" />
	<path d="M 74.393 59.348 c -0.553 0 -1 -0.447 -1 -1 V 48.278 c 0 -1.808 -1.47 -3.278 -3.277 -3.278 s -3.278 1.471 -3.278 3.278 v 10.069 c 0 0.553 -0.447 1 -1 1 s -1 -0.447 -1 -1 V 48.278 c 0 -2.911 2.368 -5.278 5.278 -5.278 s 5.277 2.368 5.277 5.278 v 10.069 C 75.393 58.9 74.945 59.348 74.393 59.348 z" style="stroke: none; stroke-width: 1; stroke-dasharray: none; stroke-linecap: butt; stroke-linejoin: miter; stroke-miterlimit: 10; fill: rgb(0,0,0); fill-rule: nonzero; opacity: 1;" transform=" matrix(1 0 0 1 0 0) " stroke-linecap="round" />
	<path d="M 16.053 59.348 h -0.446 c -0.552 0 -1 -0.447 -1 -1 s 0.448 -1 1 -1 h 0.446 c 0.552 0 1 0.447 1 1 S 16.605 59.348 16.053 59.348 z" style="stroke: none; stroke-width: 1; stroke-dasharray: none; stroke-linecap: butt; stroke-linejoin: miter; stroke-miterlimit: 10; fill: rgb(0,0,0); fill-rule: nonzero; opacity: 1;" transform=" matrix(1 0 0 1 0 0) " stroke-linecap="round" />
</g>
</svg>